<svg xmlns="http://www.w3.org/2000/svg" viewBox="1.50414 3.5 21 17">
  <path d="M 22 14 z M 21.99 13.26 c 0 -0.08 0 -0.16 -0.01 -0.24 c -0.01 -0.92 -0.54 -5.32 -0.83 -6.11 c -0.34 -0.91 -0.81 -1.59 -1.4 -2.03 C 18.81 4.17 17.99 4.02 17 4 l -0.02 0 c -0.43 0 -3.21 0.34 -5.54 0.66 c -2.33 0.32 -5.25 0.75 -5.95 1 C 4.53 6.01 3.76 6.48 3.16 7.08 c -1.12 1.1 -1.25 2.25 -1.11 3.74 c 0.11 1.16 0.73 5.71 1.08 6.75 c 0.48 1.41 1.41 2.25 2.63 2.38 C 6.06 19.98 6.34 20 6.63 20 c 1.07 0 1.91 -0.23 2.89 -0.49 c 1.54 -0.41 3.46 -0.93 7.41 -0.93 l 0.1 0 h 0.02 c 0.97 0 3.34 -0.21 4.42 -2.2 C 22.04 15.32 22.01 14.03 21.99 13.26 z z M 11.59 14.76 c -0.48 0.36 -0.8 0.45 -1.01 0.45 c -0.16 0 -0.25 -0.05 -0.3 -0.08 c -0.34 -0.18 -0.42 -0.61 -0.5 -1.2 l -0.01 -0.1 c -0.04 -0.31 -0.26 -2.1 -0.38 -3.16 L 9.3 9.94 C 9.26 9.66 9.2 9.19 9.54 8.94 c 0.32 -0.23 0.75 -0.09 0.96 -0.03 c 0.53 0.17 3.6 1.23 4.59 1.73 c 0.21 0.09 0.67 0.28 0.68 0.83 c 0.01 0.5 -0.38 0.74 -0.53 0.82 L 11.59 14.76 z z" stroke="#000000" stroke-width="0.5" fill="#FF0000"/>
</svg>